Coordinates
version=1
nRows=19
nColumns=33
inDegrees=yes

Units are S.I. units (second, meters, Newtons, ...)
Angles are in degrees.

endheader
time	ground_thorax_rot_x	ground_thorax_rot_y	ground_thorax_rot_z	ground_thorax_tx	ground_thorax_ty	ground_thorax_tz	clav_prot_r	clav_elev_r	scapula_abduction_r	scapula_elevation_r	scapula_upward_rot_r	scapula_winging_r	shoulder_elv_r	plane_of_elev_r	axial_rot_r	elbow_flexion_r	pro_sup_r	wrist_flex_r	wrist_dev_r	clav_prot_l	clav_elev_l	scapula_abduction_l	scapula_elevation_l	scapula_upward_rot_l	scapula_winging_l	shoulder_elv_l	plane_of_elev_l	axial_rot_l	elbow_flexion_l	pro_sup_l	wrist_flex_l	wrist_dev_l
      3.33000000	     37.39604457	     -0.73899311	      7.67339397	   -132.61390610	    889.86849041	      0.36812270	     13.35722729	     41.05887638	     42.70041993	     45.00000000	    -25.08395508	   4231.06024499	  -2092.28007440	     32.18404599	     63.98501517	   1459.51350624	   -275.30006488	     18.07333455	      2.89254936	      9.75162508	    -45.00000000	    -43.83057632	     45.00000000	    -23.39070974	  -1702.65572499	  -1893.17520601	    141.27847354	    152.17471709	   1808.87108640	   -354.72388153	     12.92878068	    -20.95491529
      3.34000000	     37.17944878	     -0.91341156	      7.60095129	   -128.70417138	    887.30585356	      1.02987715	     13.42177257	     41.23625288	     42.94679378	     45.00000000	    -24.41382091	   4231.17503817	  -2092.54203418	     32.11127698	     63.70574886	   1459.60582225	   -274.48589324	     18.01082067	      2.84672972	      9.57488424	    -45.00000000	    -44.05175525	     45.00000000	    -22.56698009	  -1702.91421801	  -1893.57782864	    141.31692486	    152.27626698	   1808.67186132	   -356.52569453	     13.32354198	    -20.59146801
      3.35000000	     36.97208250	     -1.07751852	      7.52521665	   -124.75098393	    884.51298694	      1.71846829	     13.43048249	     41.42776084	     43.18872163	     45.00000000	    -23.78957876	   4231.22986887	  -2092.86079861	     32.10369931	     63.47847949	   1459.69274477	   -273.75521013	     17.96651949	      2.81839120	      9.41093231	    -45.00000000	    -44.26559383	     45.00000000	    -21.85441472	  -1703.18445017	  -1893.98887393	    141.32000467	    152.47276729	   1808.51070726	   -358.07092480	     13.63234486	    -20.23632903
      3.36000000	     36.77276245	     -1.26934126	      7.44807336	   -120.75512106	    881.50272292	      2.43294707	     13.58404001	     41.59292390	     43.43991926	     45.00000000	    -23.24796334	   4231.43337047	  -2093.11111189	     31.98496838	     63.10295321	   1459.78581125	   -273.06916187	     17.91019689	      2.78366293	      9.25447912	    -45.00000000	    -44.46741733	     45.00000000	    -21.08893658	  -1703.46411788	  -1894.44568458	    141.32593994	    152.73038262	   1808.31818665	   -359.38716523	     13.98495897	    -19.87130560
      3.37000000	     36.58848876	     -1.32351493	      7.53884435	   -116.71217468	    878.28789705	      3.17163694	     13.43867415	     41.70055133	     43.58845875	     45.00000000	    -22.91889333	   4231.51688358	  -2093.47902946	     32.12182857	     62.74198813	   1459.80494410	   -272.54323843	     17.90254690	      2.80556035	      9.10834422	    -45.00000000	    -44.60798753	     45.00000000	    -20.93951776	  -1703.83269278	  -1894.80820507	    141.26281416	    153.11158705	   1808.20972414	   -360.30550157	     14.10051028	    -19.56884002
      3.38000000	     36.44931630	     -1.71030535	      7.25966198	   -112.63605400	    874.89194279	      3.92825490	     13.80775780	     41.96950618	     43.92276582	     45.00000000	    -22.10932502	   4231.79669224	  -2093.75465954	     31.83169747	     62.46995772	   1459.93136597	   -272.01022385	     17.83406936	      2.76181989	      8.94691702	    -45.00000000	    -44.94622164	     45.00000000	    -19.69699863	  -1704.06540013	  -1895.36953972	    141.26742812	    153.59608294	   1807.96627268	   -360.90541747	     14.47353441	    -19.22771856
      3.39000000	     36.28793799	     -1.86327372	      7.34876520	   -108.52795648	    871.32913660	      4.69519067	     13.99279066	     42.04343724	     44.06045006	     45.00000000	    -22.09385030	   4232.22818243	  -2093.92920860	     31.88337522	     61.57143152	   1459.99837480	   -271.58682058	     17.87153937	      2.78108530	      8.86569023	    -45.00000000	    -45.00000000	     45.00000000	    -19.34341077	  -1704.44522704	  -1895.80037714	    141.21822797	    154.08099551	   1807.74583051	   -361.04809362	     14.56835928	    -18.96415715
      3.40000000	     36.09245918	     -1.64713845	      7.69350484	   -104.40134010	    867.61520711	      5.46050500	     13.73282239	     41.95330137	     44.06853337	     45.00000000	    -22.67552562	   4232.32284321	  -2094.24770291	     32.36636624	     61.08541884	   1459.99505657	   -271.40153471	     17.91987425	      2.85745327	      8.73788185	    -45.00000000	    -45.00000000	     45.00000000	    -20.12352737	  -1704.89668803	  -1896.01433649	    140.90508719	    154.42261693	   1807.66212532	   -360.87431143	     14.31116219	    -18.82434046
      3.41000000	     36.02340401	     -1.71234459	      7.85553226	   -100.27291281	    863.76017488	      6.20989096	     13.66824542	     42.01277932	     44.16059504	     45.00000000	    -22.67105570	   4232.69724918	  -2094.48493524	     32.46490223	     60.61036247	   1460.00508099	   -271.35144410	     17.97200092	      2.91884111	      8.62310926	    -45.00000000	    -45.00000000	     45.00000000	    -20.24719966	  -1705.35121375	  -1896.42944919	    140.72154080	    155.06170140	   1807.45263159	   -360.44803161	     14.26685344	    -18.64142365
      3.42000000	     35.98221647	     -2.44419296	      7.42217601	    -96.15674037	    859.76749649	      6.92988681	     14.56199355	     42.40880061	     44.74500062	     45.00000000	    -21.69171160	   4233.26070754	  -2094.80783613	     31.79264352	     59.83231191	   1459.99535814	   -271.45739049	     17.90388354	      2.90374220	      8.40975619	    -45.00000000	    -45.00000000	     45.00000000	    -18.39340850	  -1705.82124351	  -1897.09075035	    141.00408024	    156.02167086	   1807.30810175	   -359.39641317	     14.77545935	    -18.45635645
      3.43000000	     35.92968772	     -2.75385299	      7.34478801	    -92.08094732	    855.65739410	      7.60482062	     14.72087982	     42.58531999	     45.00000000	     45.00000000	    -21.35055233	   4233.60792802	  -2095.17721871	     31.69200462	     59.27053665	   1459.93083418	   -271.79175560	     17.96511515	      3.01068139	      8.02336938	    -45.00000000	    -45.00000000	     45.00000000	    -17.98295935	  -1706.25205785	  -1897.53427616	    140.90318582	    156.51471097	   1807.15373104	   -357.97990050	     14.62732969	    -18.42339139
      3.44000000	     35.83286383	     -2.66626596	      7.62489749	    -88.06098440	    851.43771153	      8.22501833	     14.91549850	     42.62085713	     45.00000000	     45.00000000	    -21.63207825	   4233.96679818	  -2095.56763848	     31.87077056	     58.78692567	   1459.83578840	   -272.31568489	     18.01800029	      3.10405194	      8.06122258	    -45.00000000	    -45.00000000	     45.00000000	    -18.16255501	  -1706.80404110	  -1897.85318749	    140.89791834	    157.23565416	   1807.05869965	   -356.70146736	     14.57338578	    -18.38755546
      3.45000000	     35.74957978	     -2.66628284	      7.79631613	    -84.11977611	    847.13129829	      8.78353337	     15.35135588	     42.64345004	     45.00000000	     45.00000000	    -22.12344408	   4234.60361081	  -2095.73319589	     32.01184054	     57.74988929	   1459.65121110	   -273.08621843	     18.17023020	      3.25795994	      8.21684750	    -45.00000000	    -45.00000000	     45.00000000	    -18.38006094	  -1707.48284618	  -1898.22768177	    140.88618095	    158.41597898	   1806.83141888	   -355.26619716	     14.54821206	    -18.34056146
      3.46000000	     35.70308117	     -2.74152641	      7.87603837	    -80.27582626	    842.76900647	      9.27867983	     15.54090019	     42.69153424	     45.00000000	     45.00000000	    -22.19682994	   4235.14561146	  -2096.02554054	     32.02215454	     57.13501912	   1459.55071994	   -274.23757844	     18.26765189	      3.41912535	      7.99802988	    -45.00000000	    -45.00000000	     45.00000000	    -18.36145882	  -1707.83733451	  -1898.66165249	    140.68715724	    158.85134928	   1806.63114765	   -353.86254380	     14.49458238	    -18.30417172
      3.47000000	     35.58230399	     -2.86939161	      7.92065427	    -76.54090366	    838.38676739	      9.71341674	     15.56109653	     42.58788655	     45.00000000	     44.63957635	    -21.83677147	   4235.50780391	  -2096.23842301	     31.98972765	     56.79327630	   1459.37757103	   -275.72180411	     18.40516589	      3.62984205	      7.77081074	    -45.00000000	    -45.00000000	     45.00000000	    -18.35713709	  -1708.30887638	  -1898.91203051	    140.64657790	    159.35703847	   1806.42301004	   -352.59148642	     14.45557019	    -18.27425430
      3.48000000	     35.22912891	     -1.63581585	      9.37733842	    -72.93277598	    834.03865288	     10.09297513	     13.80444564	     42.03106389	     45.00000000	     44.07700733	    -22.98713859	   4235.54842117	  -2096.51252590	     31.89500642	     56.88117462	   1459.18986637	   -276.99674215	     18.27806270	      3.82800147	      7.90498207	    -45.00000000	    -45.00000000	     45.00000000	    -20.83952916	  -1708.13740385	  -1899.02117593	    139.98300299	    158.90579099	   1806.19394900	   -351.70109275	     13.73664626	    -18.25461462
      3.49000000	     35.17213484	     -3.33333338	      7.55496928	    -69.46316379	    829.76819385	     10.42652194	     14.91908822	     42.00800908	     45.00000000	     43.25769613	    -19.57582138	   4235.73322275	  -2096.83253950	     31.50289770	     57.16517914	   1458.85582860	   -279.62021255	     18.67614057	      4.16795787	      6.98112668	    -45.00000000	    -45.00000000	     45.00000000	    -17.41910886	  -1709.05309352	  -1899.42229326	    140.49368159	    160.30600772	   1805.85392685	   -350.47997423	     14.43419594	    -18.17549569
      3.50000000	     34.99234008	     -3.39086212	      7.57488661	    -66.14919150	    825.64281843	     10.72038297	     14.83672566	     41.68858467	     45.00000000	     42.61678901	    -18.95727286	   4235.84427446	  -2097.10019391	     31.42573049	     57.49839630	   1458.47205649	   -282.56566789	     18.84987378	      4.53691299	      6.89314711	    -45.00000000	    -45.00000000	     45.00000000	    -17.42000219	  -1709.45315486	  -1899.63990002	    140.44643911	    160.60693116	   1805.55730067	   -349.40883507	     14.36762621	    -18.15212785
      3.51000000	     34.83161588	     -3.47117839	      7.55276932	    -63.00930635	    821.71889818	     10.98058969	     14.50879816	     41.35504695	     45.00000000	     41.95168070	    -18.16682960	   4235.96578291	  -2097.33263222	     31.22402239	     57.78425902	   1458.02613377	   -286.09859565	     18.97538662	      4.95157302	      6.63390945	    -45.00000000	    -45.00000000	     45.00000000	    -17.35813018	  -1709.80664034	  -1899.81658083	    140.40317921	    160.94738748	   1805.32715315	   -348.49149272	     14.32338492	    -18.13303763
